<mxfile host="app.diagrams.net" agent="Mozilla/5.0 (Windows NT 10.0; Win64; x64) AppleWebKit/537.36 (KHTML, like Gecko) Chrome/137.0.0.0 Safari/537.36" version="27.2.0">
  <diagram id="R2lEEEUBdFMjLlhIrx00" name="Page-1">
    <mxGraphModel dx="6285" dy="2730" grid="1" gridSize="10" guides="1" tooltips="1" connect="1" arrows="1" fold="1" page="0" pageScale="1" pageWidth="1100" pageHeight="850" background="none" math="0" shadow="1" extFonts="Permanent Marker^https://fonts.googleapis.com/css?family=Permanent+Marker">
      <root>
        <mxCell id="0" />
        <mxCell id="1" parent="0" />
        <mxCell id="xV3OURPxh5zo4PtfM_T0-14" value="&lt;font style=&quot;font-size: 18px;&quot;&gt;Tournamnet&lt;/font&gt;" style="rounded=0;whiteSpace=wrap;html=1;fontSize=20;fontStyle=1" parent="1" vertex="1">
          <mxGeometry x="1395" y="130" width="120" height="60" as="geometry" />
        </mxCell>
        <mxCell id="xV3OURPxh5zo4PtfM_T0-15" value="&lt;font style=&quot;font-size: 19px;&quot;&gt;&lt;b&gt;Team&lt;/b&gt;&lt;/font&gt;" style="rounded=0;whiteSpace=wrap;html=1;" parent="1" vertex="1">
          <mxGeometry x="184.25" y="10" width="120" height="60" as="geometry" />
        </mxCell>
        <mxCell id="xV3OURPxh5zo4PtfM_T0-16" value="&lt;font style=&quot;font-size: 19px;&quot;&gt;&lt;b&gt;Player&lt;/b&gt;&lt;/font&gt;" style="rounded=0;whiteSpace=wrap;html=1;" parent="1" vertex="1">
          <mxGeometry x="1367" y="800" width="120" height="60" as="geometry" />
        </mxCell>
        <mxCell id="xV3OURPxh5zo4PtfM_T0-17" value="&lt;font style=&quot;font-size: 19px;&quot;&gt;&lt;b&gt;Match&lt;/b&gt;&lt;/font&gt;" style="rounded=0;whiteSpace=wrap;html=1;" parent="1" vertex="1">
          <mxGeometry x="-78.75" y="780" width="120" height="60" as="geometry" />
        </mxCell>
        <mxCell id="xV3OURPxh5zo4PtfM_T0-18" value="&lt;font style=&quot;font-size: 19px;&quot;&gt;&lt;b&gt;Performance&lt;/b&gt;&lt;/font&gt;" style="rounded=0;whiteSpace=wrap;html=1;" parent="1" vertex="1">
          <mxGeometry x="1062" y="1340" width="125" height="60" as="geometry" />
        </mxCell>
        <mxCell id="xV3OURPxh5zo4PtfM_T0-20" value="&lt;font style=&quot;font-size: 15px;&quot;&gt;tournamnet_id&lt;/font&gt;" style="ellipse;whiteSpace=wrap;html=1;rotation=30;" parent="1" vertex="1">
          <mxGeometry x="1425" y="-10" width="105" height="60" as="geometry" />
        </mxCell>
        <mxCell id="xV3OURPxh5zo4PtfM_T0-21" value="&lt;font style=&quot;font-size: 15px;&quot;&gt;name&lt;/font&gt;" style="ellipse;whiteSpace=wrap;html=1;rotation=30;" parent="1" vertex="1">
          <mxGeometry x="1310.75" y="-70" width="95" height="60" as="geometry" />
        </mxCell>
        <mxCell id="xV3OURPxh5zo4PtfM_T0-22" value="&lt;font style=&quot;font-size: 15px;&quot;&gt;start_date&lt;/font&gt;" style="ellipse;whiteSpace=wrap;html=1;rotation=30;" parent="1" vertex="1">
          <mxGeometry x="1547" y="40" width="90" height="60" as="geometry" />
        </mxCell>
        <mxCell id="xV3OURPxh5zo4PtfM_T0-23" value="&lt;font style=&quot;font-size: 15px;&quot;&gt;end_date&lt;/font&gt;" style="ellipse;whiteSpace=wrap;html=1;rotation=-20;" parent="1" vertex="1">
          <mxGeometry x="1327.75" y="330" width="90" height="60" as="geometry" />
        </mxCell>
        <mxCell id="xV3OURPxh5zo4PtfM_T0-24" value="&lt;font style=&quot;font-size: 15px;&quot;&gt;location&lt;/font&gt;" style="ellipse;whiteSpace=wrap;html=1;rotation=-25;" parent="1" vertex="1">
          <mxGeometry x="1440" y="270" width="90" height="60" as="geometry" />
        </mxCell>
        <mxCell id="xV3OURPxh5zo4PtfM_T0-25" value="&lt;font style=&quot;font-size: 15px;&quot;&gt;format&lt;/font&gt;" style="ellipse;whiteSpace=wrap;html=1;rotation=-30;" parent="1" vertex="1">
          <mxGeometry x="1547" y="210" width="100" height="60" as="geometry" />
        </mxCell>
        <mxCell id="xV3OURPxh5zo4PtfM_T0-27" value="&lt;font style=&quot;font-size: 15px;&quot;&gt;team_id&lt;/font&gt;" style="ellipse;whiteSpace=wrap;html=1;rotation=-20;" parent="1" vertex="1">
          <mxGeometry x="39.25" y="-60" width="105" height="60" as="geometry" />
        </mxCell>
        <mxCell id="xV3OURPxh5zo4PtfM_T0-28" value="&lt;font style=&quot;font-size: 15px;&quot;&gt;name&lt;/font&gt;" style="ellipse;whiteSpace=wrap;html=1;rotation=-20;" parent="1" vertex="1">
          <mxGeometry x="169.25" y="-120" width="105" height="60" as="geometry" />
        </mxCell>
        <mxCell id="xV3OURPxh5zo4PtfM_T0-29" value="&lt;font style=&quot;font-size: 15px;&quot;&gt;coach&lt;/font&gt;" style="ellipse;whiteSpace=wrap;html=1;rotation=-15;" parent="1" vertex="1">
          <mxGeometry x="306.25" y="-160" width="105" height="60" as="geometry" />
        </mxCell>
        <mxCell id="xV3OURPxh5zo4PtfM_T0-30" value="&lt;font style=&quot;font-size: 15px;&quot;&gt;captain&lt;/font&gt;" style="ellipse;whiteSpace=wrap;html=1;rotation=30;" parent="1" vertex="1">
          <mxGeometry x="21.25" y="90" width="105" height="60" as="geometry" />
        </mxCell>
        <mxCell id="xV3OURPxh5zo4PtfM_T0-31" value="&lt;font style=&quot;font-size: 15px;&quot;&gt;home_graound&lt;/font&gt;" style="ellipse;whiteSpace=wrap;html=1;rotation=30;" parent="1" vertex="1">
          <mxGeometry x="126.25" y="160" width="110" height="60" as="geometry" />
        </mxCell>
        <mxCell id="xV3OURPxh5zo4PtfM_T0-32" value="&lt;font style=&quot;font-size: 15px;&quot;&gt;tournament_id&lt;/font&gt;" style="ellipse;whiteSpace=wrap;html=1;rotation=30;" parent="1" vertex="1">
          <mxGeometry x="246.25" y="230" width="115" height="60" as="geometry" />
        </mxCell>
        <mxCell id="xV3OURPxh5zo4PtfM_T0-33" value="&lt;font style=&quot;font-size: 15px;&quot;&gt;player_id&lt;/font&gt;" style="ellipse;whiteSpace=wrap;html=1;" parent="1" vertex="1">
          <mxGeometry x="1450" y="560" width="107" height="60" as="geometry" />
        </mxCell>
        <mxCell id="xV3OURPxh5zo4PtfM_T0-34" value="&lt;font style=&quot;font-size: 15px;&quot;&gt;name&lt;/font&gt;" style="ellipse;whiteSpace=wrap;html=1;" parent="1" vertex="1">
          <mxGeometry x="1563" y="620" width="107" height="60" as="geometry" />
        </mxCell>
        <mxCell id="xV3OURPxh5zo4PtfM_T0-35" value="&lt;font style=&quot;font-size: 15px;&quot;&gt;dob&lt;/font&gt;" style="ellipse;whiteSpace=wrap;html=1;" parent="1" vertex="1">
          <mxGeometry x="1647" y="710" width="107" height="60" as="geometry" />
        </mxCell>
        <mxCell id="xV3OURPxh5zo4PtfM_T0-36" value="&lt;font style=&quot;font-size: 15px;&quot;&gt;nationality&lt;/font&gt;" style="ellipse;whiteSpace=wrap;html=1;" parent="1" vertex="1">
          <mxGeometry x="1670" y="820" width="107" height="60" as="geometry" />
        </mxCell>
        <mxCell id="xV3OURPxh5zo4PtfM_T0-37" value="&lt;font style=&quot;font-size: 15px;&quot;&gt;role&lt;/font&gt;" style="ellipse;whiteSpace=wrap;html=1;" parent="1" vertex="1">
          <mxGeometry x="1600" y="910" width="107" height="60" as="geometry" />
        </mxCell>
        <mxCell id="xV3OURPxh5zo4PtfM_T0-38" value="&lt;font style=&quot;font-size: 15px;&quot;&gt;batting_style&lt;/font&gt;" style="ellipse;whiteSpace=wrap;html=1;" parent="1" vertex="1">
          <mxGeometry x="1507.5" y="1000" width="107" height="60" as="geometry" />
        </mxCell>
        <mxCell id="xV3OURPxh5zo4PtfM_T0-39" value="&lt;font style=&quot;font-size: 15px;&quot;&gt;bowling_style&lt;/font&gt;" style="ellipse;whiteSpace=wrap;html=1;" parent="1" vertex="1">
          <mxGeometry x="1310.75" y="560" width="107" height="60" as="geometry" />
        </mxCell>
        <mxCell id="xV3OURPxh5zo4PtfM_T0-40" value="&lt;font style=&quot;font-size: 15px;&quot;&gt;team_id&lt;/font&gt;" style="ellipse;whiteSpace=wrap;html=1;" parent="1" vertex="1">
          <mxGeometry x="1392.5" y="1050" width="107" height="60" as="geometry" />
        </mxCell>
        <mxCell id="xV3OURPxh5zo4PtfM_T0-42" value="&lt;font style=&quot;font-size: 15px;&quot;&gt;match_id&lt;/font&gt;" style="ellipse;whiteSpace=wrap;html=1;" parent="1" vertex="1">
          <mxGeometry x="-215.75" y="960" width="107" height="60" as="geometry" />
        </mxCell>
        <mxCell id="xV3OURPxh5zo4PtfM_T0-43" value="&lt;font style=&quot;font-size: 15px;&quot;&gt;tournament_id&lt;/font&gt;" style="ellipse;whiteSpace=wrap;html=1;" parent="1" vertex="1">
          <mxGeometry x="-322.75" y="900" width="107" height="60" as="geometry" />
        </mxCell>
        <mxCell id="xV3OURPxh5zo4PtfM_T0-44" value="&lt;font style=&quot;font-size: 15px;&quot;&gt;date&lt;/font&gt;" style="ellipse;whiteSpace=wrap;html=1;" parent="1" vertex="1">
          <mxGeometry x="-380" y="820" width="107" height="60" as="geometry" />
        </mxCell>
        <mxCell id="xV3OURPxh5zo4PtfM_T0-45" value="&lt;font style=&quot;font-size: 15px;&quot;&gt;venue&lt;/font&gt;" style="ellipse;whiteSpace=wrap;html=1;" parent="1" vertex="1">
          <mxGeometry x="-375.75" y="730" width="107" height="60" as="geometry" />
        </mxCell>
        <mxCell id="xV3OURPxh5zo4PtfM_T0-46" value="&lt;font style=&quot;font-size: 15px;&quot;&gt;team1_id&lt;/font&gt;" style="ellipse;whiteSpace=wrap;html=1;" parent="1" vertex="1">
          <mxGeometry x="-322.75" y="630" width="107" height="60" as="geometry" />
        </mxCell>
        <mxCell id="xV3OURPxh5zo4PtfM_T0-47" value="&lt;font style=&quot;font-size: 15px;&quot;&gt;team2_id&lt;/font&gt;" style="ellipse;whiteSpace=wrap;html=1;" parent="1" vertex="1">
          <mxGeometry x="-192.75" y="580" width="107" height="60" as="geometry" />
        </mxCell>
        <mxCell id="xV3OURPxh5zo4PtfM_T0-48" value="&lt;font style=&quot;font-size: 15px;&quot;&gt;winner_id&lt;/font&gt;" style="ellipse;whiteSpace=wrap;html=1;" parent="1" vertex="1">
          <mxGeometry x="-85.75" y="990" width="107" height="60" as="geometry" />
        </mxCell>
        <mxCell id="xV3OURPxh5zo4PtfM_T0-49" value="&lt;font style=&quot;font-size: 15px;&quot;&gt;result&lt;/font&gt;" style="ellipse;whiteSpace=wrap;html=1;" parent="1" vertex="1">
          <mxGeometry x="-51.25" y="570" width="107" height="60" as="geometry" />
        </mxCell>
        <mxCell id="xV3OURPxh5zo4PtfM_T0-50" value="&lt;font style=&quot;font-size: 15px;&quot;&gt;performance_id&lt;/font&gt;" style="ellipse;whiteSpace=wrap;html=1;" parent="1" vertex="1">
          <mxGeometry x="756.5" y="1420" width="120" height="60" as="geometry" />
        </mxCell>
        <mxCell id="xV3OURPxh5zo4PtfM_T0-51" value="&lt;font style=&quot;font-size: 15px;&quot;&gt;match_id&lt;/font&gt;" style="ellipse;whiteSpace=wrap;html=1;" parent="1" vertex="1">
          <mxGeometry x="870" y="1510" width="107" height="60" as="geometry" />
        </mxCell>
        <mxCell id="xV3OURPxh5zo4PtfM_T0-52" value="&lt;font style=&quot;font-size: 15px;&quot;&gt;player_id&lt;/font&gt;" style="ellipse;whiteSpace=wrap;html=1;" parent="1" vertex="1">
          <mxGeometry x="1010" y="1560" width="107" height="60" as="geometry" />
        </mxCell>
        <mxCell id="xV3OURPxh5zo4PtfM_T0-53" value="&lt;font style=&quot;font-size: 15px;&quot;&gt;runs_scored&lt;/font&gt;" style="ellipse;whiteSpace=wrap;html=1;" parent="1" vertex="1">
          <mxGeometry x="1161.75" y="1560" width="107" height="60" as="geometry" />
        </mxCell>
        <mxCell id="xV3OURPxh5zo4PtfM_T0-54" value="&lt;font style=&quot;font-size: 15px;&quot;&gt;balls_faced&lt;/font&gt;" style="ellipse;whiteSpace=wrap;html=1;" parent="1" vertex="1">
          <mxGeometry x="1310.75" y="1500" width="107" height="60" as="geometry" />
        </mxCell>
        <mxCell id="xV3OURPxh5zo4PtfM_T0-55" value="&lt;font style=&quot;font-size: 15px;&quot;&gt;wickets_taken&lt;/font&gt;" style="ellipse;whiteSpace=wrap;html=1;" parent="1" vertex="1">
          <mxGeometry x="1367" y="1420" width="107" height="60" as="geometry" />
        </mxCell>
        <mxCell id="xV3OURPxh5zo4PtfM_T0-56" value="&lt;font style=&quot;font-size: 15px;&quot;&gt;balls_bowled&lt;/font&gt;" style="ellipse;whiteSpace=wrap;html=1;" parent="1" vertex="1">
          <mxGeometry x="730" y="1330" width="107" height="60" as="geometry" />
        </mxCell>
        <mxCell id="xV3OURPxh5zo4PtfM_T0-57" value="&lt;font style=&quot;font-size: 15px;&quot;&gt;overs_bowled&lt;/font&gt;" style="ellipse;whiteSpace=wrap;html=1;" parent="1" vertex="1">
          <mxGeometry x="1392.5" y="1320" width="107" height="60" as="geometry" />
        </mxCell>
        <mxCell id="xV3OURPxh5zo4PtfM_T0-64" value="" style="line;strokeWidth=1;rotatable=0;dashed=0;labelPosition=right;align=left;verticalAlign=middle;spacingTop=0;spacingLeft=6;points=[];portConstraint=eastwest;" parent="1" vertex="1">
          <mxGeometry x="-200.5" y="1000" width="76.5" height="10" as="geometry" />
        </mxCell>
        <mxCell id="xV3OURPxh5zo4PtfM_T0-65" value="" style="line;strokeWidth=1;rotatable=0;dashed=0;labelPosition=right;align=left;verticalAlign=middle;spacingTop=0;spacingLeft=6;points=[];portConstraint=eastwest;" parent="1" vertex="1">
          <mxGeometry x="773" y="1460" width="97" height="10" as="geometry" />
        </mxCell>
        <mxCell id="xV3OURPxh5zo4PtfM_T0-67" style="edgeStyle=orthogonalEdgeStyle;rounded=0;orthogonalLoop=1;jettySize=auto;html=1;exitX=0.5;exitY=1;exitDx=0;exitDy=0;" parent="1" source="xV3OURPxh5zo4PtfM_T0-38" target="xV3OURPxh5zo4PtfM_T0-38" edge="1">
          <mxGeometry relative="1" as="geometry" />
        </mxCell>
        <mxCell id="xV3OURPxh5zo4PtfM_T0-73" value="Can Have" style="rhombus;whiteSpace=wrap;html=1;rotation=-15;" parent="1" vertex="1">
          <mxGeometry x="830" y="180" width="90" height="80" as="geometry" />
        </mxCell>
        <mxCell id="dQL-cm_5oxTSmfGSWq1e-5" value="" style="line;strokeWidth=1;rotatable=0;dashed=0;labelPosition=right;align=left;verticalAlign=middle;spacingTop=0;spacingLeft=6;points=[];portConstraint=eastwest;" parent="1" vertex="1">
          <mxGeometry x="1465.25" y="600" width="76.5" height="10" as="geometry" />
        </mxCell>
        <mxCell id="dQL-cm_5oxTSmfGSWq1e-7" value="" style="endArrow=none;html=1;rounded=0;" parent="1" edge="1">
          <mxGeometry width="50" height="50" relative="1" as="geometry">
            <mxPoint x="59.25" as="sourcePoint" />
            <mxPoint x="133.75" y="-27.5" as="targetPoint" />
          </mxGeometry>
        </mxCell>
        <mxCell id="dQL-cm_5oxTSmfGSWq1e-8" value="" style="endArrow=none;html=1;rounded=0;" parent="1" edge="1">
          <mxGeometry width="50" height="50" relative="1" as="geometry">
            <mxPoint x="1427" y="10" as="sourcePoint" />
            <mxPoint x="1507.5" y="60" as="targetPoint" />
          </mxGeometry>
        </mxCell>
        <mxCell id="dQL-cm_5oxTSmfGSWq1e-10" value="" style="endArrow=none;html=1;rounded=0;exitX=1;exitY=0.5;exitDx=0;exitDy=0;entryX=0;entryY=0.5;entryDx=0;entryDy=0;" parent="1" source="xV3OURPxh5zo4PtfM_T0-73" target="xV3OURPxh5zo4PtfM_T0-14" edge="1">
          <mxGeometry width="50" height="50" relative="1" as="geometry">
            <mxPoint x="1090" y="300" as="sourcePoint" />
            <mxPoint x="1140" y="250" as="targetPoint" />
          </mxGeometry>
        </mxCell>
        <mxCell id="dQL-cm_5oxTSmfGSWq1e-14" value="One" style="edgeLabel;html=1;align=center;verticalAlign=middle;resizable=0;points=[];" parent="dQL-cm_5oxTSmfGSWq1e-10" vertex="1" connectable="0">
          <mxGeometry x="-0.8067" y="-1" relative="1" as="geometry">
            <mxPoint as="offset" />
          </mxGeometry>
        </mxCell>
        <mxCell id="dQL-cm_5oxTSmfGSWq1e-12" value="" style="endArrow=none;html=1;rounded=0;exitX=1;exitY=0.5;exitDx=0;exitDy=0;" parent="1" source="xV3OURPxh5zo4PtfM_T0-15" edge="1">
          <mxGeometry width="50" height="50" relative="1" as="geometry">
            <mxPoint x="750" y="390" as="sourcePoint" />
            <mxPoint x="830" y="230" as="targetPoint" />
          </mxGeometry>
        </mxCell>
        <mxCell id="dQL-cm_5oxTSmfGSWq1e-13" value="Many" style="edgeLabel;html=1;align=center;verticalAlign=middle;resizable=0;points=[];" parent="dQL-cm_5oxTSmfGSWq1e-12" vertex="1" connectable="0">
          <mxGeometry x="0.7889" y="3" relative="1" as="geometry">
            <mxPoint as="offset" />
          </mxGeometry>
        </mxCell>
        <mxCell id="dQL-cm_5oxTSmfGSWq1e-15" value="" style="endArrow=none;html=1;rounded=0;exitX=1;exitY=0.75;exitDx=0;exitDy=0;entryX=0;entryY=0.5;entryDx=0;entryDy=0;" parent="1" source="xV3OURPxh5zo4PtfM_T0-15" target="dQL-cm_5oxTSmfGSWq1e-18" edge="1">
          <mxGeometry width="50" height="50" relative="1" as="geometry">
            <mxPoint x="780" y="540" as="sourcePoint" />
            <mxPoint x="830" y="490" as="targetPoint" />
          </mxGeometry>
        </mxCell>
        <mxCell id="dQL-cm_5oxTSmfGSWq1e-20" value="One" style="edgeLabel;html=1;align=center;verticalAlign=middle;resizable=0;points=[];" parent="dQL-cm_5oxTSmfGSWq1e-15" vertex="1" connectable="0">
          <mxGeometry x="0.8525" y="-1" relative="1" as="geometry">
            <mxPoint as="offset" />
          </mxGeometry>
        </mxCell>
        <mxCell id="dQL-cm_5oxTSmfGSWq1e-18" value="Can Have" style="rhombus;whiteSpace=wrap;html=1;rotation=30;" parent="1" vertex="1">
          <mxGeometry x="830" y="510" width="90" height="80" as="geometry" />
        </mxCell>
        <mxCell id="dQL-cm_5oxTSmfGSWq1e-19" value="" style="endArrow=none;html=1;rounded=0;exitX=1;exitY=0.5;exitDx=0;exitDy=0;entryX=0;entryY=0.25;entryDx=0;entryDy=0;" parent="1" source="dQL-cm_5oxTSmfGSWq1e-18" target="xV3OURPxh5zo4PtfM_T0-16" edge="1">
          <mxGeometry width="50" height="50" relative="1" as="geometry">
            <mxPoint x="780" y="540" as="sourcePoint" />
            <mxPoint x="830" y="490" as="targetPoint" />
          </mxGeometry>
        </mxCell>
        <mxCell id="dQL-cm_5oxTSmfGSWq1e-21" value="Many" style="edgeLabel;html=1;align=center;verticalAlign=middle;resizable=0;points=[];" parent="dQL-cm_5oxTSmfGSWq1e-19" vertex="1" connectable="0">
          <mxGeometry x="-0.8885" y="-2" relative="1" as="geometry">
            <mxPoint x="-1" as="offset" />
          </mxGeometry>
        </mxCell>
        <mxCell id="dQL-cm_5oxTSmfGSWq1e-22" value="Can Have" style="rhombus;whiteSpace=wrap;html=1;rotation=-35;" parent="1" vertex="1">
          <mxGeometry x="1081.75" y="350" width="80" height="80" as="geometry" />
        </mxCell>
        <mxCell id="dQL-cm_5oxTSmfGSWq1e-23" value="" style="endArrow=none;html=1;rounded=0;exitX=1;exitY=0.5;exitDx=0;exitDy=0;entryX=0;entryY=0.75;entryDx=0;entryDy=0;" parent="1" source="dQL-cm_5oxTSmfGSWq1e-22" target="xV3OURPxh5zo4PtfM_T0-14" edge="1">
          <mxGeometry width="50" height="50" relative="1" as="geometry">
            <mxPoint x="1210" y="320" as="sourcePoint" />
            <mxPoint x="1260" y="270" as="targetPoint" />
          </mxGeometry>
        </mxCell>
        <mxCell id="dQL-cm_5oxTSmfGSWq1e-25" value="One" style="edgeLabel;html=1;align=center;verticalAlign=middle;resizable=0;points=[];" parent="dQL-cm_5oxTSmfGSWq1e-23" vertex="1" connectable="0">
          <mxGeometry x="-0.7978" y="-2" relative="1" as="geometry">
            <mxPoint as="offset" />
          </mxGeometry>
        </mxCell>
        <mxCell id="dQL-cm_5oxTSmfGSWq1e-24" value="" style="endArrow=none;html=1;rounded=0;entryX=0;entryY=0.5;entryDx=0;entryDy=0;exitX=1;exitY=0.25;exitDx=0;exitDy=0;" parent="1" source="xV3OURPxh5zo4PtfM_T0-17" target="dQL-cm_5oxTSmfGSWq1e-22" edge="1">
          <mxGeometry width="50" height="50" relative="1" as="geometry">
            <mxPoint x="1000" y="490" as="sourcePoint" />
            <mxPoint x="1050" y="440" as="targetPoint" />
          </mxGeometry>
        </mxCell>
        <mxCell id="dQL-cm_5oxTSmfGSWq1e-26" value="Many" style="edgeLabel;html=1;align=center;verticalAlign=middle;resizable=0;points=[];" parent="dQL-cm_5oxTSmfGSWq1e-24" vertex="1" connectable="0">
          <mxGeometry x="0.9266" y="1" relative="1" as="geometry">
            <mxPoint x="-1" as="offset" />
          </mxGeometry>
        </mxCell>
        <mxCell id="dQL-cm_5oxTSmfGSWq1e-27" value="" style="endArrow=none;html=1;rounded=0;exitX=1;exitY=0.5;exitDx=0;exitDy=0;entryX=0;entryY=0.5;entryDx=0;entryDy=0;" parent="1" source="xV3OURPxh5zo4PtfM_T0-17" target="dQL-cm_5oxTSmfGSWq1e-28" edge="1">
          <mxGeometry width="50" height="50" relative="1" as="geometry">
            <mxPoint x="780" y="1130" as="sourcePoint" />
            <mxPoint x="560" y="1110" as="targetPoint" />
          </mxGeometry>
        </mxCell>
        <mxCell id="dQL-cm_5oxTSmfGSWq1e-30" value="One" style="edgeLabel;html=1;align=center;verticalAlign=middle;resizable=0;points=[];" parent="dQL-cm_5oxTSmfGSWq1e-27" vertex="1" connectable="0">
          <mxGeometry x="0.7419" y="1" relative="1" as="geometry">
            <mxPoint y="1" as="offset" />
          </mxGeometry>
        </mxCell>
        <mxCell id="dQL-cm_5oxTSmfGSWq1e-28" value="Can Have" style="rhombus;whiteSpace=wrap;html=1;rotation=15;" parent="1" vertex="1">
          <mxGeometry x="649.76" y="950" width="80" height="80" as="geometry" />
        </mxCell>
        <mxCell id="dQL-cm_5oxTSmfGSWq1e-29" value="" style="endArrow=none;html=1;rounded=0;exitX=1;exitY=0.5;exitDx=0;exitDy=0;entryX=0;entryY=0.25;entryDx=0;entryDy=0;" parent="1" source="dQL-cm_5oxTSmfGSWq1e-28" target="xV3OURPxh5zo4PtfM_T0-18" edge="1">
          <mxGeometry width="50" height="50" relative="1" as="geometry">
            <mxPoint x="780" y="1130" as="sourcePoint" />
            <mxPoint x="830" y="1080" as="targetPoint" />
          </mxGeometry>
        </mxCell>
        <mxCell id="dQL-cm_5oxTSmfGSWq1e-31" value="Many" style="edgeLabel;html=1;align=center;verticalAlign=middle;resizable=0;points=[];" parent="dQL-cm_5oxTSmfGSWq1e-29" vertex="1" connectable="0">
          <mxGeometry x="-0.8647" y="3" relative="1" as="geometry">
            <mxPoint as="offset" />
          </mxGeometry>
        </mxCell>
        <mxCell id="dQL-cm_5oxTSmfGSWq1e-32" value="&lt;font style=&quot;font-size: 19px;&quot;&gt;&lt;b&gt;Umpire&lt;/b&gt;&lt;/font&gt;" style="rounded=0;whiteSpace=wrap;html=1;" parent="1" vertex="1">
          <mxGeometry x="-250" y="1320" width="120" height="60" as="geometry" />
        </mxCell>
        <mxCell id="dQL-cm_5oxTSmfGSWq1e-34" value="&lt;font style=&quot;font-size: 15px;&quot;&gt;umpire_id&lt;/font&gt;" style="ellipse;whiteSpace=wrap;html=1;" parent="1" vertex="1">
          <mxGeometry x="-370" y="1170" width="107" height="60" as="geometry" />
        </mxCell>
        <mxCell id="dQL-cm_5oxTSmfGSWq1e-35" value="&lt;font style=&quot;font-size: 15px;&quot;&gt;name&lt;/font&gt;" style="ellipse;whiteSpace=wrap;html=1;" parent="1" vertex="1">
          <mxGeometry x="-450" y="1350" width="107" height="60" as="geometry" />
        </mxCell>
        <mxCell id="dQL-cm_5oxTSmfGSWq1e-36" value="&lt;font style=&quot;font-size: 15px;&quot;&gt;nationality&lt;/font&gt;" style="ellipse;whiteSpace=wrap;html=1;" parent="1" vertex="1">
          <mxGeometry x="-450" y="1250" width="107" height="60" as="geometry" />
        </mxCell>
        <mxCell id="dQL-cm_5oxTSmfGSWq1e-37" value="&lt;font style=&quot;font-size: 15px;&quot;&gt;experience_years&lt;/font&gt;" style="ellipse;whiteSpace=wrap;html=1;" parent="1" vertex="1">
          <mxGeometry x="-223.62" y="1460" width="122.75" height="60" as="geometry" />
        </mxCell>
        <mxCell id="dQL-cm_5oxTSmfGSWq1e-38" value="&lt;font style=&quot;font-size: 15px;&quot;&gt;umpire_type&lt;/font&gt;" style="ellipse;whiteSpace=wrap;html=1;" parent="1" vertex="1">
          <mxGeometry x="-380" y="1435" width="107" height="60" as="geometry" />
        </mxCell>
        <mxCell id="dQL-cm_5oxTSmfGSWq1e-39" value="&lt;font style=&quot;font-size: 15px;&quot;&gt;matches_officiated&lt;/font&gt;" style="ellipse;whiteSpace=wrap;html=1;" parent="1" vertex="1">
          <mxGeometry x="-217.5" y="1150" width="138.75" height="60" as="geometry" />
        </mxCell>
        <mxCell id="dQL-cm_5oxTSmfGSWq1e-41" value="&lt;font style=&quot;font-size: 19px;&quot;&gt;&lt;b&gt;Venue&lt;/b&gt;&lt;/font&gt;" style="rounded=0;whiteSpace=wrap;html=1;" parent="1" vertex="1">
          <mxGeometry x="350" y="1460" width="120" height="60" as="geometry" />
        </mxCell>
        <mxCell id="dQL-cm_5oxTSmfGSWq1e-42" value="&lt;font style=&quot;font-size: 15px;&quot;&gt;venue_id&lt;/font&gt;" style="ellipse;whiteSpace=wrap;html=1;" parent="1" vertex="1">
          <mxGeometry x="126.25" y="1390" width="107" height="60" as="geometry" />
        </mxCell>
        <mxCell id="dQL-cm_5oxTSmfGSWq1e-43" value="&lt;font style=&quot;font-size: 15px;&quot;&gt;name&lt;/font&gt;" style="ellipse;whiteSpace=wrap;html=1;" parent="1" vertex="1">
          <mxGeometry x="160" y="1480" width="107" height="60" as="geometry" />
        </mxCell>
        <mxCell id="dQL-cm_5oxTSmfGSWq1e-44" value="&lt;font style=&quot;font-size: 15px;&quot;&gt;city&lt;/font&gt;" style="ellipse;whiteSpace=wrap;html=1;" parent="1" vertex="1">
          <mxGeometry x="190.75" y="1570" width="107" height="60" as="geometry" />
        </mxCell>
        <mxCell id="dQL-cm_5oxTSmfGSWq1e-45" value="&lt;font style=&quot;font-size: 15px;&quot;&gt;country&lt;/font&gt;" style="ellipse;whiteSpace=wrap;html=1;" parent="1" vertex="1">
          <mxGeometry x="304.25" y="1630" width="107" height="60" as="geometry" />
        </mxCell>
        <mxCell id="dQL-cm_5oxTSmfGSWq1e-46" value="&lt;span style=&quot;font-size: 15px;&quot;&gt;capacity&lt;/span&gt;" style="ellipse;whiteSpace=wrap;html=1;" parent="1" vertex="1">
          <mxGeometry x="450" y="1630" width="107" height="60" as="geometry" />
        </mxCell>
        <mxCell id="dQL-cm_5oxTSmfGSWq1e-47" value="&lt;font style=&quot;font-size: 15px;&quot;&gt;pitch_type&lt;/font&gt;" style="ellipse;whiteSpace=wrap;html=1;" parent="1" vertex="1">
          <mxGeometry x="520" y="1540" width="107" height="60" as="geometry" />
        </mxCell>
        <mxCell id="dQL-cm_5oxTSmfGSWq1e-48" value="&lt;font style=&quot;font-size: 15px;&quot;&gt;is_floodlit&lt;/font&gt;" style="ellipse;whiteSpace=wrap;html=1;" parent="1" vertex="1">
          <mxGeometry x="570" y="1435" width="107" height="60" as="geometry" />
        </mxCell>
        <mxCell id="dQL-cm_5oxTSmfGSWq1e-49" value="Can Have" style="rhombus;whiteSpace=wrap;html=1;rotation=30;" parent="1" vertex="1">
          <mxGeometry x="1190" y="1030" width="80" height="80" as="geometry" />
        </mxCell>
        <mxCell id="dQL-cm_5oxTSmfGSWq1e-50" value="" style="endArrow=none;html=1;rounded=0;entryX=0.25;entryY=1;entryDx=0;entryDy=0;exitX=0.5;exitY=0;exitDx=0;exitDy=0;" parent="1" source="dQL-cm_5oxTSmfGSWq1e-49" target="xV3OURPxh5zo4PtfM_T0-16" edge="1">
          <mxGeometry width="50" height="50" relative="1" as="geometry">
            <mxPoint x="1010" y="1060" as="sourcePoint" />
            <mxPoint x="1060" y="1010" as="targetPoint" />
          </mxGeometry>
        </mxCell>
        <mxCell id="dQL-cm_5oxTSmfGSWq1e-52" value="One" style="edgeLabel;html=1;align=center;verticalAlign=middle;resizable=0;points=[];" parent="dQL-cm_5oxTSmfGSWq1e-50" vertex="1" connectable="0">
          <mxGeometry x="-0.6675" y="1" relative="1" as="geometry">
            <mxPoint as="offset" />
          </mxGeometry>
        </mxCell>
        <mxCell id="dQL-cm_5oxTSmfGSWq1e-51" value="" style="endArrow=none;html=1;rounded=0;entryX=0.5;entryY=1;entryDx=0;entryDy=0;exitX=0;exitY=0;exitDx=0;exitDy=0;" parent="1" source="xV3OURPxh5zo4PtfM_T0-18" target="dQL-cm_5oxTSmfGSWq1e-49" edge="1">
          <mxGeometry width="50" height="50" relative="1" as="geometry">
            <mxPoint x="1010" y="1060" as="sourcePoint" />
            <mxPoint x="1060" y="1010" as="targetPoint" />
          </mxGeometry>
        </mxCell>
        <mxCell id="dQL-cm_5oxTSmfGSWq1e-53" value="Many" style="edgeLabel;html=1;align=center;verticalAlign=middle;resizable=0;points=[];" parent="dQL-cm_5oxTSmfGSWq1e-51" vertex="1" connectable="0">
          <mxGeometry x="0.7581" y="3" relative="1" as="geometry">
            <mxPoint as="offset" />
          </mxGeometry>
        </mxCell>
        <mxCell id="dQL-cm_5oxTSmfGSWq1e-54" value="Can Host" style="rhombus;whiteSpace=wrap;html=1;rotation=-15;" parent="1" vertex="1">
          <mxGeometry x="344.11" y="1122.24" width="80" height="80" as="geometry" />
        </mxCell>
        <mxCell id="dQL-cm_5oxTSmfGSWq1e-55" value="" style="endArrow=none;html=1;rounded=0;entryX=0.75;entryY=1;entryDx=0;entryDy=0;exitX=0.5;exitY=0;exitDx=0;exitDy=0;" parent="1" source="dQL-cm_5oxTSmfGSWq1e-54" target="xV3OURPxh5zo4PtfM_T0-17" edge="1">
          <mxGeometry width="50" height="50" relative="1" as="geometry">
            <mxPoint x="550" y="1140" as="sourcePoint" />
            <mxPoint x="600" y="1090" as="targetPoint" />
          </mxGeometry>
        </mxCell>
        <mxCell id="dQL-cm_5oxTSmfGSWq1e-58" value="Many" style="edgeLabel;html=1;align=center;verticalAlign=middle;resizable=0;points=[];" parent="dQL-cm_5oxTSmfGSWq1e-55" vertex="1" connectable="0">
          <mxGeometry x="-0.708" y="-1" relative="1" as="geometry">
            <mxPoint y="-1" as="offset" />
          </mxGeometry>
        </mxCell>
        <mxCell id="dQL-cm_5oxTSmfGSWq1e-56" value="" style="endArrow=none;html=1;rounded=0;exitX=0.5;exitY=1;exitDx=0;exitDy=0;entryX=0.25;entryY=0;entryDx=0;entryDy=0;" parent="1" source="dQL-cm_5oxTSmfGSWq1e-54" target="dQL-cm_5oxTSmfGSWq1e-41" edge="1">
          <mxGeometry width="50" height="50" relative="1" as="geometry">
            <mxPoint x="550" y="1140" as="sourcePoint" />
            <mxPoint x="600" y="1090" as="targetPoint" />
          </mxGeometry>
        </mxCell>
        <mxCell id="dQL-cm_5oxTSmfGSWq1e-57" value="One" style="edgeLabel;html=1;align=center;verticalAlign=middle;resizable=0;points=[];" parent="dQL-cm_5oxTSmfGSWq1e-56" vertex="1" connectable="0">
          <mxGeometry x="-0.7409" y="-1" relative="1" as="geometry">
            <mxPoint as="offset" />
          </mxGeometry>
        </mxCell>
        <mxCell id="dQL-cm_5oxTSmfGSWq1e-59" value="Plays as&amp;nbsp;&lt;div&gt;Team 1&lt;/div&gt;" style="rhombus;whiteSpace=wrap;html=1;" parent="1" vertex="1">
          <mxGeometry x="10" y="360" width="80" height="80" as="geometry" />
        </mxCell>
        <mxCell id="dQL-cm_5oxTSmfGSWq1e-60" value="Plays as&amp;nbsp;&lt;div&gt;Team 2&lt;/div&gt;" style="rhombus;whiteSpace=wrap;html=1;" parent="1" vertex="1">
          <mxGeometry x="153.25" y="390" width="80" height="80" as="geometry" />
        </mxCell>
        <mxCell id="dQL-cm_5oxTSmfGSWq1e-61" value="" style="endArrow=none;html=1;rounded=0;entryX=0.25;entryY=1;entryDx=0;entryDy=0;exitX=0.5;exitY=0;exitDx=0;exitDy=0;" parent="1" source="dQL-cm_5oxTSmfGSWq1e-59" target="xV3OURPxh5zo4PtfM_T0-15" edge="1">
          <mxGeometry width="50" height="50" relative="1" as="geometry">
            <mxPoint x="300" y="490" as="sourcePoint" />
            <mxPoint x="350" y="440" as="targetPoint" />
          </mxGeometry>
        </mxCell>
        <mxCell id="dQL-cm_5oxTSmfGSWq1e-65" value="One" style="edgeLabel;html=1;align=center;verticalAlign=middle;resizable=0;points=[];" parent="dQL-cm_5oxTSmfGSWq1e-61" vertex="1" connectable="0">
          <mxGeometry x="-0.7518" y="2" relative="1" as="geometry">
            <mxPoint as="offset" />
          </mxGeometry>
        </mxCell>
        <mxCell id="dQL-cm_5oxTSmfGSWq1e-62" value="" style="endArrow=none;html=1;rounded=0;entryX=0.5;entryY=1;entryDx=0;entryDy=0;exitX=0.5;exitY=0;exitDx=0;exitDy=0;" parent="1" source="dQL-cm_5oxTSmfGSWq1e-60" target="xV3OURPxh5zo4PtfM_T0-15" edge="1">
          <mxGeometry width="50" height="50" relative="1" as="geometry">
            <mxPoint x="300" y="490" as="sourcePoint" />
            <mxPoint x="350" y="440" as="targetPoint" />
          </mxGeometry>
        </mxCell>
        <mxCell id="dQL-cm_5oxTSmfGSWq1e-67" value="One" style="edgeLabel;html=1;align=center;verticalAlign=middle;resizable=0;points=[];" parent="dQL-cm_5oxTSmfGSWq1e-62" vertex="1" connectable="0">
          <mxGeometry x="-0.7278" y="1" relative="1" as="geometry">
            <mxPoint as="offset" />
          </mxGeometry>
        </mxCell>
        <mxCell id="dQL-cm_5oxTSmfGSWq1e-63" value="" style="endArrow=none;html=1;rounded=0;exitX=0.5;exitY=1;exitDx=0;exitDy=0;entryX=0.75;entryY=0;entryDx=0;entryDy=0;" parent="1" source="dQL-cm_5oxTSmfGSWq1e-60" target="xV3OURPxh5zo4PtfM_T0-17" edge="1">
          <mxGeometry width="50" height="50" relative="1" as="geometry">
            <mxPoint x="300" y="490" as="sourcePoint" />
            <mxPoint x="350" y="440" as="targetPoint" />
          </mxGeometry>
        </mxCell>
        <mxCell id="dQL-cm_5oxTSmfGSWq1e-68" value="Many" style="edgeLabel;html=1;align=center;verticalAlign=middle;resizable=0;points=[];" parent="dQL-cm_5oxTSmfGSWq1e-63" vertex="1" connectable="0">
          <mxGeometry x="-0.7922" relative="1" as="geometry">
            <mxPoint as="offset" />
          </mxGeometry>
        </mxCell>
        <mxCell id="dQL-cm_5oxTSmfGSWq1e-64" value="" style="endArrow=none;html=1;rounded=0;exitX=0.5;exitY=1;exitDx=0;exitDy=0;entryX=0.5;entryY=0;entryDx=0;entryDy=0;" parent="1" source="dQL-cm_5oxTSmfGSWq1e-59" target="xV3OURPxh5zo4PtfM_T0-17" edge="1">
          <mxGeometry width="50" height="50" relative="1" as="geometry">
            <mxPoint x="300" y="490" as="sourcePoint" />
            <mxPoint x="350" y="440" as="targetPoint" />
          </mxGeometry>
        </mxCell>
        <mxCell id="dQL-cm_5oxTSmfGSWq1e-66" value="Many" style="edgeLabel;html=1;align=center;verticalAlign=middle;resizable=0;points=[];" parent="dQL-cm_5oxTSmfGSWq1e-64" vertex="1" connectable="0">
          <mxGeometry x="-0.8083" relative="1" as="geometry">
            <mxPoint as="offset" />
          </mxGeometry>
        </mxCell>
        <mxCell id="dQL-cm_5oxTSmfGSWq1e-71" value="&lt;font style=&quot;font-size: 19px;&quot;&gt;&lt;b&gt;Match Umpire&lt;/b&gt;&lt;/font&gt;" style="rounded=0;whiteSpace=wrap;html=1;" parent="1" vertex="1">
          <mxGeometry x="-870" y="990" width="120" height="60" as="geometry" />
        </mxCell>
        <mxCell id="dQL-cm_5oxTSmfGSWq1e-73" value="&lt;font style=&quot;font-size: 15px;&quot;&gt;match_id&lt;/font&gt;" style="ellipse;whiteSpace=wrap;html=1;" parent="1" vertex="1">
          <mxGeometry x="-940" y="860" width="107" height="60" as="geometry" />
        </mxCell>
        <mxCell id="dQL-cm_5oxTSmfGSWq1e-74" value="&lt;font style=&quot;font-size: 15px;&quot;&gt;umpire_id&lt;/font&gt;" style="ellipse;whiteSpace=wrap;html=1;" parent="1" vertex="1">
          <mxGeometry x="-1100" y="990" width="107" height="60" as="geometry" />
        </mxCell>
        <mxCell id="dQL-cm_5oxTSmfGSWq1e-75" value="&lt;font style=&quot;font-size: 15px;&quot;&gt;role&lt;/font&gt;" style="ellipse;whiteSpace=wrap;html=1;" parent="1" vertex="1">
          <mxGeometry x="-960" y="1122.24" width="107" height="60" as="geometry" />
        </mxCell>
        <mxCell id="dQL-cm_5oxTSmfGSWq1e-76" value="" style="endArrow=none;html=1;rounded=0;exitX=0.5;exitY=1;exitDx=0;exitDy=0;entryX=0.25;entryY=0;entryDx=0;entryDy=0;" parent="1" source="dQL-cm_5oxTSmfGSWq1e-73" target="dQL-cm_5oxTSmfGSWq1e-71" edge="1">
          <mxGeometry width="50" height="50" relative="1" as="geometry">
            <mxPoint x="-690" y="1080" as="sourcePoint" />
            <mxPoint x="-640" y="1030" as="targetPoint" />
          </mxGeometry>
        </mxCell>
        <mxCell id="dQL-cm_5oxTSmfGSWq1e-77" value="" style="endArrow=none;html=1;rounded=0;entryX=1;entryY=0.5;entryDx=0;entryDy=0;exitX=0;exitY=0.5;exitDx=0;exitDy=0;" parent="1" source="dQL-cm_5oxTSmfGSWq1e-71" target="dQL-cm_5oxTSmfGSWq1e-74" edge="1">
          <mxGeometry width="50" height="50" relative="1" as="geometry">
            <mxPoint x="-1043" y="1140" as="sourcePoint" />
            <mxPoint x="-993" y="1090" as="targetPoint" />
          </mxGeometry>
        </mxCell>
        <mxCell id="dQL-cm_5oxTSmfGSWq1e-78" value="" style="endArrow=none;html=1;rounded=0;exitX=1;exitY=0;exitDx=0;exitDy=0;entryX=0.5;entryY=1;entryDx=0;entryDy=0;" parent="1" source="dQL-cm_5oxTSmfGSWq1e-75" target="dQL-cm_5oxTSmfGSWq1e-71" edge="1">
          <mxGeometry width="50" height="50" relative="1" as="geometry">
            <mxPoint x="-840" y="1122.24" as="sourcePoint" />
            <mxPoint x="-790" y="1072.24" as="targetPoint" />
          </mxGeometry>
        </mxCell>
        <mxCell id="dQL-cm_5oxTSmfGSWq1e-79" value="Can officiate in&amp;nbsp;&lt;div&gt;mltiple matches&lt;/div&gt;" style="rhombus;whiteSpace=wrap;html=1;rotation=30;" parent="1" vertex="1">
          <mxGeometry x="-630" y="1122.24" width="130" height="100" as="geometry" />
        </mxCell>
        <mxCell id="dQL-cm_5oxTSmfGSWq1e-80" value="" style="endArrow=none;html=1;rounded=0;exitX=1;exitY=1;exitDx=0;exitDy=0;entryX=0;entryY=0.5;entryDx=0;entryDy=0;" parent="1" source="dQL-cm_5oxTSmfGSWq1e-71" target="dQL-cm_5oxTSmfGSWq1e-79" edge="1">
          <mxGeometry width="50" height="50" relative="1" as="geometry">
            <mxPoint x="-240" y="1050" as="sourcePoint" />
            <mxPoint x="-190" y="1000" as="targetPoint" />
          </mxGeometry>
        </mxCell>
        <mxCell id="dQL-cm_5oxTSmfGSWq1e-83" value="Many" style="edgeLabel;html=1;align=center;verticalAlign=middle;resizable=0;points=[];" parent="dQL-cm_5oxTSmfGSWq1e-80" vertex="1" connectable="0">
          <mxGeometry x="0.4514" relative="1" as="geometry">
            <mxPoint y="-1" as="offset" />
          </mxGeometry>
        </mxCell>
        <mxCell id="dQL-cm_5oxTSmfGSWq1e-81" value="" style="endArrow=none;html=1;rounded=0;exitX=1;exitY=0.5;exitDx=0;exitDy=0;entryX=0;entryY=0;entryDx=0;entryDy=0;" parent="1" source="dQL-cm_5oxTSmfGSWq1e-79" target="dQL-cm_5oxTSmfGSWq1e-32" edge="1">
          <mxGeometry width="50" height="50" relative="1" as="geometry">
            <mxPoint x="-240" y="1050" as="sourcePoint" />
            <mxPoint x="-190" y="1000" as="targetPoint" />
          </mxGeometry>
        </mxCell>
        <mxCell id="dQL-cm_5oxTSmfGSWq1e-82" value="One" style="edgeLabel;html=1;align=center;verticalAlign=middle;resizable=0;points=[];" parent="dQL-cm_5oxTSmfGSWq1e-81" vertex="1" connectable="0">
          <mxGeometry x="-0.711" y="2" relative="1" as="geometry">
            <mxPoint x="1" as="offset" />
          </mxGeometry>
        </mxCell>
        <mxCell id="dQL-cm_5oxTSmfGSWq1e-86" value="Can have" style="rhombus;whiteSpace=wrap;html=1;rotation=-10;" parent="1" vertex="1">
          <mxGeometry x="-540" y="850" width="80" height="80" as="geometry" />
        </mxCell>
        <mxCell id="dQL-cm_5oxTSmfGSWq1e-87" value="" style="endArrow=none;html=1;rounded=0;exitX=1;exitY=0;exitDx=0;exitDy=0;entryX=0;entryY=0.5;entryDx=0;entryDy=0;" parent="1" source="dQL-cm_5oxTSmfGSWq1e-71" target="dQL-cm_5oxTSmfGSWq1e-86" edge="1">
          <mxGeometry width="50" height="50" relative="1" as="geometry">
            <mxPoint x="40" y="1210" as="sourcePoint" />
            <mxPoint x="90" y="1160" as="targetPoint" />
          </mxGeometry>
        </mxCell>
        <mxCell id="dQL-cm_5oxTSmfGSWq1e-91" value="Many" style="edgeLabel;html=1;align=center;verticalAlign=middle;resizable=0;points=[];" parent="dQL-cm_5oxTSmfGSWq1e-87" vertex="1" connectable="0">
          <mxGeometry x="0.5455" y="1" relative="1" as="geometry">
            <mxPoint as="offset" />
          </mxGeometry>
        </mxCell>
        <mxCell id="dQL-cm_5oxTSmfGSWq1e-88" value="" style="endArrow=none;html=1;rounded=0;exitX=1;exitY=0.5;exitDx=0;exitDy=0;entryX=0;entryY=0;entryDx=0;entryDy=0;" parent="1" source="dQL-cm_5oxTSmfGSWq1e-86" target="xV3OURPxh5zo4PtfM_T0-17" edge="1">
          <mxGeometry width="50" height="50" relative="1" as="geometry">
            <mxPoint x="40" y="1210" as="sourcePoint" />
            <mxPoint x="90" y="1160" as="targetPoint" />
          </mxGeometry>
        </mxCell>
        <mxCell id="dQL-cm_5oxTSmfGSWq1e-90" value="One" style="edgeLabel;html=1;align=center;verticalAlign=middle;resizable=0;points=[];" parent="dQL-cm_5oxTSmfGSWq1e-88" vertex="1" connectable="0">
          <mxGeometry x="-0.8005" y="1" relative="1" as="geometry">
            <mxPoint as="offset" />
          </mxGeometry>
        </mxCell>
        <mxCell id="kESSp_721VdWlTzvNjMp-4" value="" style="endArrow=none;html=1;rounded=0;entryX=1;entryY=1;entryDx=0;entryDy=0;exitX=0.25;exitY=0;exitDx=0;exitDy=0;" parent="1" source="dQL-cm_5oxTSmfGSWq1e-32" target="dQL-cm_5oxTSmfGSWq1e-34" edge="1">
          <mxGeometry width="50" height="50" relative="1" as="geometry">
            <mxPoint x="-294.25" y="1290" as="sourcePoint" />
            <mxPoint x="-244.25" y="1240" as="targetPoint" />
          </mxGeometry>
        </mxCell>
        <mxCell id="kESSp_721VdWlTzvNjMp-5" value="" style="endArrow=none;html=1;rounded=0;exitX=1;exitY=1;exitDx=0;exitDy=0;entryX=0;entryY=0.5;entryDx=0;entryDy=0;" parent="1" source="dQL-cm_5oxTSmfGSWq1e-36" target="dQL-cm_5oxTSmfGSWq1e-32" edge="1">
          <mxGeometry width="50" height="50" relative="1" as="geometry">
            <mxPoint x="-300" y="1350" as="sourcePoint" />
            <mxPoint x="-250" y="1300" as="targetPoint" />
          </mxGeometry>
        </mxCell>
        <mxCell id="kESSp_721VdWlTzvNjMp-6" value="" style="endArrow=none;html=1;rounded=0;exitX=1;exitY=0.5;exitDx=0;exitDy=0;entryX=0;entryY=0.75;entryDx=0;entryDy=0;" parent="1" source="dQL-cm_5oxTSmfGSWq1e-35" target="dQL-cm_5oxTSmfGSWq1e-32" edge="1">
          <mxGeometry width="50" height="50" relative="1" as="geometry">
            <mxPoint x="-313" y="1410" as="sourcePoint" />
            <mxPoint x="-263" y="1360" as="targetPoint" />
          </mxGeometry>
        </mxCell>
        <mxCell id="kESSp_721VdWlTzvNjMp-7" value="" style="endArrow=none;html=1;rounded=0;exitX=1;exitY=0;exitDx=0;exitDy=0;entryX=0.25;entryY=1;entryDx=0;entryDy=0;" parent="1" source="dQL-cm_5oxTSmfGSWq1e-38" target="dQL-cm_5oxTSmfGSWq1e-32" edge="1">
          <mxGeometry width="50" height="50" relative="1" as="geometry">
            <mxPoint x="-268.75" y="1435" as="sourcePoint" />
            <mxPoint x="-218.75" y="1385" as="targetPoint" />
          </mxGeometry>
        </mxCell>
        <mxCell id="kESSp_721VdWlTzvNjMp-8" value="" style="endArrow=none;html=1;rounded=0;entryX=0.75;entryY=1;entryDx=0;entryDy=0;exitX=0.5;exitY=0;exitDx=0;exitDy=0;" parent="1" source="dQL-cm_5oxTSmfGSWq1e-37" target="dQL-cm_5oxTSmfGSWq1e-32" edge="1">
          <mxGeometry width="50" height="50" relative="1" as="geometry">
            <mxPoint x="-192.75" y="1460" as="sourcePoint" />
            <mxPoint x="-142.75" y="1410" as="targetPoint" />
          </mxGeometry>
        </mxCell>
        <mxCell id="kESSp_721VdWlTzvNjMp-9" value="" style="endArrow=none;html=1;rounded=0;entryX=0.5;entryY=1;entryDx=0;entryDy=0;exitX=0.75;exitY=0;exitDx=0;exitDy=0;" parent="1" source="dQL-cm_5oxTSmfGSWq1e-32" target="dQL-cm_5oxTSmfGSWq1e-39" edge="1">
          <mxGeometry width="50" height="50" relative="1" as="geometry">
            <mxPoint x="-180" y="1300" as="sourcePoint" />
            <mxPoint x="-130" y="1250" as="targetPoint" />
          </mxGeometry>
        </mxCell>
        <mxCell id="kESSp_721VdWlTzvNjMp-12" value="" style="endArrow=none;html=1;rounded=0;entryX=0;entryY=1;entryDx=0;entryDy=0;exitX=0.25;exitY=0;exitDx=0;exitDy=0;" parent="1" source="xV3OURPxh5zo4PtfM_T0-17" target="xV3OURPxh5zo4PtfM_T0-49" edge="1">
          <mxGeometry width="50" height="50" relative="1" as="geometry">
            <mxPoint x="-57.25" y="700" as="sourcePoint" />
            <mxPoint x="-7.25" y="650" as="targetPoint" />
          </mxGeometry>
        </mxCell>
        <mxCell id="kESSp_721VdWlTzvNjMp-14" value="" style="endArrow=none;html=1;rounded=0;entryX=0.5;entryY=1;entryDx=0;entryDy=0;exitX=0;exitY=0;exitDx=0;exitDy=0;" parent="1" source="xV3OURPxh5zo4PtfM_T0-17" target="xV3OURPxh5zo4PtfM_T0-47" edge="1">
          <mxGeometry width="50" height="50" relative="1" as="geometry">
            <mxPoint x="-173.12" y="720" as="sourcePoint" />
            <mxPoint x="-123.12" y="670" as="targetPoint" />
          </mxGeometry>
        </mxCell>
        <mxCell id="kESSp_721VdWlTzvNjMp-15" value="" style="endArrow=none;html=1;rounded=0;entryX=1;entryY=1;entryDx=0;entryDy=0;exitX=0;exitY=0.25;exitDx=0;exitDy=0;" parent="1" source="xV3OURPxh5zo4PtfM_T0-17" target="xV3OURPxh5zo4PtfM_T0-46" edge="1">
          <mxGeometry width="50" height="50" relative="1" as="geometry">
            <mxPoint x="-242.75" y="750" as="sourcePoint" />
            <mxPoint x="-192.75" y="700" as="targetPoint" />
          </mxGeometry>
        </mxCell>
        <mxCell id="kESSp_721VdWlTzvNjMp-16" value="" style="endArrow=none;html=1;rounded=0;exitX=1;exitY=0.5;exitDx=0;exitDy=0;entryX=0;entryY=0.5;entryDx=0;entryDy=0;" parent="1" source="xV3OURPxh5zo4PtfM_T0-45" target="xV3OURPxh5zo4PtfM_T0-17" edge="1">
          <mxGeometry width="50" height="50" relative="1" as="geometry">
            <mxPoint x="-250" y="790" as="sourcePoint" />
            <mxPoint x="-200" y="740" as="targetPoint" />
          </mxGeometry>
        </mxCell>
        <mxCell id="kESSp_721VdWlTzvNjMp-17" value="" style="endArrow=none;html=1;rounded=0;exitX=1;exitY=0.5;exitDx=0;exitDy=0;entryX=0;entryY=0.75;entryDx=0;entryDy=0;" parent="1" source="xV3OURPxh5zo4PtfM_T0-44" target="xV3OURPxh5zo4PtfM_T0-17" edge="1">
          <mxGeometry width="50" height="50" relative="1" as="geometry">
            <mxPoint x="-250" y="870" as="sourcePoint" />
            <mxPoint x="-200" y="820" as="targetPoint" />
          </mxGeometry>
        </mxCell>
        <mxCell id="kESSp_721VdWlTzvNjMp-18" value="" style="endArrow=none;html=1;rounded=0;exitX=0.955;exitY=0.178;exitDx=0;exitDy=0;exitPerimeter=0;entryX=0;entryY=1;entryDx=0;entryDy=0;" parent="1" source="xV3OURPxh5zo4PtfM_T0-43" target="xV3OURPxh5zo4PtfM_T0-17" edge="1">
          <mxGeometry width="50" height="50" relative="1" as="geometry">
            <mxPoint x="-200.5" y="910" as="sourcePoint" />
            <mxPoint x="-150.5" y="860" as="targetPoint" />
          </mxGeometry>
        </mxCell>
        <mxCell id="kESSp_721VdWlTzvNjMp-19" value="" style="endArrow=none;html=1;rounded=0;exitX=0.5;exitY=0;exitDx=0;exitDy=0;entryX=0.25;entryY=1;entryDx=0;entryDy=0;" parent="1" source="xV3OURPxh5zo4PtfM_T0-42" target="xV3OURPxh5zo4PtfM_T0-17" edge="1">
          <mxGeometry width="50" height="50" relative="1" as="geometry">
            <mxPoint x="-158.75" y="950" as="sourcePoint" />
            <mxPoint x="-108.75" y="900" as="targetPoint" />
          </mxGeometry>
        </mxCell>
        <mxCell id="kESSp_721VdWlTzvNjMp-20" value="" style="endArrow=none;html=1;rounded=0;entryX=0.5;entryY=1;entryDx=0;entryDy=0;exitX=0.5;exitY=0;exitDx=0;exitDy=0;" parent="1" source="xV3OURPxh5zo4PtfM_T0-48" target="xV3OURPxh5zo4PtfM_T0-17" edge="1">
          <mxGeometry width="50" height="50" relative="1" as="geometry">
            <mxPoint x="-51.25" y="960" as="sourcePoint" />
            <mxPoint x="-1.25" y="910" as="targetPoint" />
          </mxGeometry>
        </mxCell>
        <mxCell id="kESSp_721VdWlTzvNjMp-21" value="" style="endArrow=none;html=1;rounded=0;exitX=1;exitY=0.5;exitDx=0;exitDy=0;entryX=0;entryY=0.25;entryDx=0;entryDy=0;" parent="1" source="dQL-cm_5oxTSmfGSWq1e-42" target="dQL-cm_5oxTSmfGSWq1e-41" edge="1">
          <mxGeometry width="50" height="50" relative="1" as="geometry">
            <mxPoint x="246.25" y="1440" as="sourcePoint" />
            <mxPoint x="296.25" y="1390" as="targetPoint" />
          </mxGeometry>
        </mxCell>
        <mxCell id="kESSp_721VdWlTzvNjMp-22" value="" style="endArrow=none;html=1;rounded=0;exitX=1;exitY=0.5;exitDx=0;exitDy=0;entryX=0;entryY=0.75;entryDx=0;entryDy=0;" parent="1" source="dQL-cm_5oxTSmfGSWq1e-43" target="dQL-cm_5oxTSmfGSWq1e-41" edge="1">
          <mxGeometry width="50" height="50" relative="1" as="geometry">
            <mxPoint x="274.25" y="1510" as="sourcePoint" />
            <mxPoint x="324.25" y="1460" as="targetPoint" />
          </mxGeometry>
        </mxCell>
        <mxCell id="kESSp_721VdWlTzvNjMp-23" value="" style="endArrow=none;html=1;rounded=0;exitX=1;exitY=0;exitDx=0;exitDy=0;entryX=0;entryY=1;entryDx=0;entryDy=0;" parent="1" source="dQL-cm_5oxTSmfGSWq1e-44" target="dQL-cm_5oxTSmfGSWq1e-41" edge="1">
          <mxGeometry width="50" height="50" relative="1" as="geometry">
            <mxPoint x="300" y="1570" as="sourcePoint" />
            <mxPoint x="350" y="1520" as="targetPoint" />
          </mxGeometry>
        </mxCell>
        <mxCell id="kESSp_721VdWlTzvNjMp-24" value="" style="endArrow=none;html=1;rounded=0;exitX=0.5;exitY=0;exitDx=0;exitDy=0;entryX=0.25;entryY=1;entryDx=0;entryDy=0;" parent="1" source="dQL-cm_5oxTSmfGSWq1e-45" target="dQL-cm_5oxTSmfGSWq1e-41" edge="1">
          <mxGeometry width="50" height="50" relative="1" as="geometry">
            <mxPoint x="359.11" y="1615" as="sourcePoint" />
            <mxPoint x="409.11" y="1565" as="targetPoint" />
          </mxGeometry>
        </mxCell>
        <mxCell id="kESSp_721VdWlTzvNjMp-25" value="" style="endArrow=none;html=1;rounded=0;entryX=0.5;entryY=1;entryDx=0;entryDy=0;exitX=0;exitY=0;exitDx=0;exitDy=0;" parent="1" source="dQL-cm_5oxTSmfGSWq1e-46" target="dQL-cm_5oxTSmfGSWq1e-41" edge="1">
          <mxGeometry width="50" height="50" relative="1" as="geometry">
            <mxPoint x="440" y="1640" as="sourcePoint" />
            <mxPoint x="490" y="1590" as="targetPoint" />
          </mxGeometry>
        </mxCell>
        <mxCell id="kESSp_721VdWlTzvNjMp-26" value="" style="endArrow=none;html=1;rounded=0;exitX=1;exitY=1;exitDx=0;exitDy=0;entryX=0;entryY=0;entryDx=0;entryDy=0;" parent="1" source="dQL-cm_5oxTSmfGSWq1e-41" target="dQL-cm_5oxTSmfGSWq1e-47" edge="1">
          <mxGeometry width="50" height="50" relative="1" as="geometry">
            <mxPoint x="510" y="1560" as="sourcePoint" />
            <mxPoint x="560" y="1510" as="targetPoint" />
          </mxGeometry>
        </mxCell>
        <mxCell id="kESSp_721VdWlTzvNjMp-27" value="" style="endArrow=none;html=1;rounded=0;exitX=1;exitY=0.25;exitDx=0;exitDy=0;entryX=0;entryY=0.5;entryDx=0;entryDy=0;" parent="1" source="dQL-cm_5oxTSmfGSWq1e-41" target="dQL-cm_5oxTSmfGSWq1e-48" edge="1">
          <mxGeometry width="50" height="50" relative="1" as="geometry">
            <mxPoint x="520" y="1480" as="sourcePoint" />
            <mxPoint x="570" y="1430" as="targetPoint" />
          </mxGeometry>
        </mxCell>
        <mxCell id="kESSp_721VdWlTzvNjMp-29" value="" style="endArrow=none;html=1;rounded=0;exitX=1;exitY=0.5;exitDx=0;exitDy=0;entryX=0;entryY=0.5;entryDx=0;entryDy=0;" parent="1" source="xV3OURPxh5zo4PtfM_T0-56" target="xV3OURPxh5zo4PtfM_T0-18" edge="1">
          <mxGeometry width="50" height="50" relative="1" as="geometry">
            <mxPoint x="860" y="1360" as="sourcePoint" />
            <mxPoint x="910" y="1310" as="targetPoint" />
          </mxGeometry>
        </mxCell>
        <mxCell id="kESSp_721VdWlTzvNjMp-30" value="" style="endArrow=none;html=1;rounded=0;exitX=1;exitY=0.5;exitDx=0;exitDy=0;entryX=0;entryY=0.75;entryDx=0;entryDy=0;" parent="1" source="xV3OURPxh5zo4PtfM_T0-50" target="xV3OURPxh5zo4PtfM_T0-18" edge="1">
          <mxGeometry width="50" height="50" relative="1" as="geometry">
            <mxPoint x="890" y="1445" as="sourcePoint" />
            <mxPoint x="940" y="1395" as="targetPoint" />
          </mxGeometry>
        </mxCell>
        <mxCell id="kESSp_721VdWlTzvNjMp-31" value="" style="endArrow=none;html=1;rounded=0;exitX=1;exitY=0;exitDx=0;exitDy=0;entryX=0;entryY=1;entryDx=0;entryDy=0;" parent="1" source="xV3OURPxh5zo4PtfM_T0-51" target="xV3OURPxh5zo4PtfM_T0-18" edge="1">
          <mxGeometry width="50" height="50" relative="1" as="geometry">
            <mxPoint x="977" y="1510" as="sourcePoint" />
            <mxPoint x="1027" y="1460" as="targetPoint" />
          </mxGeometry>
        </mxCell>
        <mxCell id="kESSp_721VdWlTzvNjMp-32" value="" style="endArrow=none;html=1;rounded=0;exitX=0.5;exitY=0;exitDx=0;exitDy=0;entryX=0.25;entryY=1;entryDx=0;entryDy=0;" parent="1" source="xV3OURPxh5zo4PtfM_T0-52" target="xV3OURPxh5zo4PtfM_T0-18" edge="1">
          <mxGeometry width="50" height="50" relative="1" as="geometry">
            <mxPoint x="1050" y="1550" as="sourcePoint" />
            <mxPoint x="1100" y="1500" as="targetPoint" />
          </mxGeometry>
        </mxCell>
        <mxCell id="kESSp_721VdWlTzvNjMp-33" value="" style="endArrow=none;html=1;rounded=0;exitX=0.75;exitY=1;exitDx=0;exitDy=0;entryX=0;entryY=0;entryDx=0;entryDy=0;" parent="1" source="xV3OURPxh5zo4PtfM_T0-18" target="xV3OURPxh5zo4PtfM_T0-54" edge="1">
          <mxGeometry width="50" height="50" relative="1" as="geometry">
            <mxPoint x="1270" y="1530" as="sourcePoint" />
            <mxPoint x="1320" y="1480" as="targetPoint" />
          </mxGeometry>
        </mxCell>
        <mxCell id="kESSp_721VdWlTzvNjMp-34" value="" style="endArrow=none;html=1;rounded=0;exitX=1;exitY=0.75;exitDx=0;exitDy=0;entryX=0;entryY=0;entryDx=0;entryDy=0;" parent="1" source="xV3OURPxh5zo4PtfM_T0-18" target="xV3OURPxh5zo4PtfM_T0-55" edge="1">
          <mxGeometry width="50" height="50" relative="1" as="geometry">
            <mxPoint x="1310.75" y="1460" as="sourcePoint" />
            <mxPoint x="1360.75" y="1410" as="targetPoint" />
          </mxGeometry>
        </mxCell>
        <mxCell id="kESSp_721VdWlTzvNjMp-35" value="" style="endArrow=none;html=1;rounded=0;exitX=0.5;exitY=0;exitDx=0;exitDy=0;entryX=0.5;entryY=1;entryDx=0;entryDy=0;" parent="1" source="xV3OURPxh5zo4PtfM_T0-53" target="xV3OURPxh5zo4PtfM_T0-18" edge="1">
          <mxGeometry width="50" height="50" relative="1" as="geometry">
            <mxPoint x="1160" y="1570" as="sourcePoint" />
            <mxPoint x="1210" y="1520" as="targetPoint" />
          </mxGeometry>
        </mxCell>
        <mxCell id="kESSp_721VdWlTzvNjMp-36" value="" style="endArrow=none;html=1;rounded=0;exitX=1;exitY=0.25;exitDx=0;exitDy=0;entryX=0;entryY=0.5;entryDx=0;entryDy=0;" parent="1" source="xV3OURPxh5zo4PtfM_T0-18" target="xV3OURPxh5zo4PtfM_T0-57" edge="1">
          <mxGeometry width="50" height="50" relative="1" as="geometry">
            <mxPoint x="1327.75" y="1375" as="sourcePoint" />
            <mxPoint x="1377.75" y="1325" as="targetPoint" />
          </mxGeometry>
        </mxCell>
        <mxCell id="kESSp_721VdWlTzvNjMp-37" value="" style="endArrow=none;html=1;rounded=0;entryX=0.5;entryY=1;entryDx=0;entryDy=0;exitX=0.5;exitY=0;exitDx=0;exitDy=0;" parent="1" source="xV3OURPxh5zo4PtfM_T0-40" target="xV3OURPxh5zo4PtfM_T0-16" edge="1">
          <mxGeometry width="50" height="50" relative="1" as="geometry">
            <mxPoint x="1405.75" y="1040" as="sourcePoint" />
            <mxPoint x="1455.75" y="990" as="targetPoint" />
          </mxGeometry>
        </mxCell>
        <mxCell id="kESSp_721VdWlTzvNjMp-38" value="" style="endArrow=none;html=1;rounded=0;entryX=0.5;entryY=1;entryDx=0;entryDy=0;exitX=0.25;exitY=0;exitDx=0;exitDy=0;" parent="1" source="xV3OURPxh5zo4PtfM_T0-16" target="xV3OURPxh5zo4PtfM_T0-39" edge="1">
          <mxGeometry width="50" height="50" relative="1" as="geometry">
            <mxPoint x="1355.75" y="685" as="sourcePoint" />
            <mxPoint x="1405.75" y="635" as="targetPoint" />
          </mxGeometry>
        </mxCell>
        <mxCell id="kESSp_721VdWlTzvNjMp-39" value="" style="endArrow=none;html=1;rounded=0;exitX=0.75;exitY=0;exitDx=0;exitDy=0;entryX=0.5;entryY=1;entryDx=0;entryDy=0;" parent="1" source="xV3OURPxh5zo4PtfM_T0-16" target="xV3OURPxh5zo4PtfM_T0-33" edge="1">
          <mxGeometry width="50" height="50" relative="1" as="geometry">
            <mxPoint x="1440" y="690" as="sourcePoint" />
            <mxPoint x="1490" y="640" as="targetPoint" />
          </mxGeometry>
        </mxCell>
        <mxCell id="kESSp_721VdWlTzvNjMp-40" value="" style="endArrow=none;html=1;rounded=0;exitX=1;exitY=0;exitDx=0;exitDy=0;entryX=0;entryY=1;entryDx=0;entryDy=0;" parent="1" source="xV3OURPxh5zo4PtfM_T0-16" target="xV3OURPxh5zo4PtfM_T0-34" edge="1">
          <mxGeometry width="50" height="50" relative="1" as="geometry">
            <mxPoint x="1515" y="740" as="sourcePoint" />
            <mxPoint x="1565" y="690" as="targetPoint" />
          </mxGeometry>
        </mxCell>
        <mxCell id="kESSp_721VdWlTzvNjMp-41" value="" style="endArrow=none;html=1;rounded=0;exitX=1;exitY=0.5;exitDx=0;exitDy=0;entryX=0;entryY=1;entryDx=0;entryDy=0;" parent="1" source="xV3OURPxh5zo4PtfM_T0-16" target="xV3OURPxh5zo4PtfM_T0-35" edge="1">
          <mxGeometry width="50" height="50" relative="1" as="geometry">
            <mxPoint x="1572" y="810" as="sourcePoint" />
            <mxPoint x="1622" y="760" as="targetPoint" />
          </mxGeometry>
        </mxCell>
        <mxCell id="kESSp_721VdWlTzvNjMp-42" value="" style="endArrow=none;html=1;rounded=0;exitX=1;exitY=0.75;exitDx=0;exitDy=0;entryX=0;entryY=0.5;entryDx=0;entryDy=0;" parent="1" source="xV3OURPxh5zo4PtfM_T0-16" target="xV3OURPxh5zo4PtfM_T0-36" edge="1">
          <mxGeometry width="50" height="50" relative="1" as="geometry">
            <mxPoint x="1600" y="880" as="sourcePoint" />
            <mxPoint x="1650" y="830" as="targetPoint" />
          </mxGeometry>
        </mxCell>
        <mxCell id="kESSp_721VdWlTzvNjMp-43" value="" style="endArrow=none;html=1;rounded=0;entryX=0.75;entryY=1;entryDx=0;entryDy=0;exitX=0.5;exitY=0;exitDx=0;exitDy=0;" parent="1" source="xV3OURPxh5zo4PtfM_T0-38" target="xV3OURPxh5zo4PtfM_T0-16" edge="1">
          <mxGeometry width="50" height="50" relative="1" as="geometry">
            <mxPoint x="1499.5" y="1010" as="sourcePoint" />
            <mxPoint x="1549.5" y="960" as="targetPoint" />
          </mxGeometry>
        </mxCell>
        <mxCell id="kESSp_721VdWlTzvNjMp-44" value="" style="endArrow=none;html=1;rounded=0;entryX=1;entryY=1;entryDx=0;entryDy=0;exitX=0;exitY=0;exitDx=0;exitDy=0;" parent="1" source="xV3OURPxh5zo4PtfM_T0-37" target="xV3OURPxh5zo4PtfM_T0-16" edge="1">
          <mxGeometry width="50" height="50" relative="1" as="geometry">
            <mxPoint x="1550" y="970" as="sourcePoint" />
            <mxPoint x="1600" y="920" as="targetPoint" />
          </mxGeometry>
        </mxCell>
        <mxCell id="kESSp_721VdWlTzvNjMp-45" value="" style="endArrow=none;html=1;rounded=0;exitX=1;exitY=0.5;exitDx=0;exitDy=0;" parent="1" source="xV3OURPxh5zo4PtfM_T0-14" target="xV3OURPxh5zo4PtfM_T0-22" edge="1">
          <mxGeometry width="50" height="50" relative="1" as="geometry">
            <mxPoint x="1530" y="160" as="sourcePoint" />
            <mxPoint x="1580" y="110" as="targetPoint" />
          </mxGeometry>
        </mxCell>
        <mxCell id="kESSp_721VdWlTzvNjMp-46" value="" style="endArrow=none;html=1;rounded=0;exitX=1;exitY=0.5;exitDx=0;exitDy=0;entryX=0.5;entryY=0;entryDx=0;entryDy=0;" parent="1" source="xV3OURPxh5zo4PtfM_T0-14" target="xV3OURPxh5zo4PtfM_T0-25" edge="1">
          <mxGeometry width="50" height="50" relative="1" as="geometry">
            <mxPoint x="1547" y="230" as="sourcePoint" />
            <mxPoint x="1597" y="180" as="targetPoint" />
          </mxGeometry>
        </mxCell>
        <mxCell id="kESSp_721VdWlTzvNjMp-47" value="" style="endArrow=none;html=1;rounded=0;entryX=0.75;entryY=1;entryDx=0;entryDy=0;exitX=0.5;exitY=0;exitDx=0;exitDy=0;" parent="1" source="xV3OURPxh5zo4PtfM_T0-24" target="xV3OURPxh5zo4PtfM_T0-14" edge="1">
          <mxGeometry width="50" height="50" relative="1" as="geometry">
            <mxPoint x="1450" y="280" as="sourcePoint" />
            <mxPoint x="1500" y="230" as="targetPoint" />
          </mxGeometry>
        </mxCell>
        <mxCell id="kESSp_721VdWlTzvNjMp-48" value="" style="endArrow=none;html=1;rounded=0;entryX=0.25;entryY=1;entryDx=0;entryDy=0;exitX=0.5;exitY=0;exitDx=0;exitDy=0;" parent="1" source="xV3OURPxh5zo4PtfM_T0-23" target="xV3OURPxh5zo4PtfM_T0-14" edge="1">
          <mxGeometry width="50" height="50" relative="1" as="geometry">
            <mxPoint x="1347.75" y="330" as="sourcePoint" />
            <mxPoint x="1397.75" y="280" as="targetPoint" />
          </mxGeometry>
        </mxCell>
        <mxCell id="kESSp_721VdWlTzvNjMp-49" value="" style="endArrow=none;html=1;rounded=0;entryX=0.5;entryY=1;entryDx=0;entryDy=0;exitX=0.5;exitY=0;exitDx=0;exitDy=0;" parent="1" source="xV3OURPxh5zo4PtfM_T0-14" target="xV3OURPxh5zo4PtfM_T0-20" edge="1">
          <mxGeometry width="50" height="50" relative="1" as="geometry">
            <mxPoint x="1417.75" y="110" as="sourcePoint" />
            <mxPoint x="1467.75" y="60" as="targetPoint" />
          </mxGeometry>
        </mxCell>
        <mxCell id="kESSp_721VdWlTzvNjMp-50" value="" style="endArrow=none;html=1;rounded=0;entryX=1;entryY=1;entryDx=0;entryDy=0;exitX=0.25;exitY=0;exitDx=0;exitDy=0;" parent="1" source="xV3OURPxh5zo4PtfM_T0-14" target="xV3OURPxh5zo4PtfM_T0-21" edge="1">
          <mxGeometry width="50" height="50" relative="1" as="geometry">
            <mxPoint x="1317" y="60" as="sourcePoint" />
            <mxPoint x="1367" y="10" as="targetPoint" />
          </mxGeometry>
        </mxCell>
        <mxCell id="kESSp_721VdWlTzvNjMp-51" value="" style="endArrow=none;html=1;rounded=0;entryX=0.5;entryY=1;entryDx=0;entryDy=0;exitX=0.75;exitY=0;exitDx=0;exitDy=0;" parent="1" source="xV3OURPxh5zo4PtfM_T0-15" target="xV3OURPxh5zo4PtfM_T0-29" edge="1">
          <mxGeometry width="50" height="50" relative="1" as="geometry">
            <mxPoint x="344.11" y="-50" as="sourcePoint" />
            <mxPoint x="394.11" y="-100" as="targetPoint" />
          </mxGeometry>
        </mxCell>
        <mxCell id="kESSp_721VdWlTzvNjMp-52" value="" style="endArrow=none;html=1;rounded=0;entryX=0.5;entryY=1;entryDx=0;entryDy=0;exitX=0.25;exitY=0;exitDx=0;exitDy=0;" parent="1" source="xV3OURPxh5zo4PtfM_T0-15" target="xV3OURPxh5zo4PtfM_T0-28" edge="1">
          <mxGeometry width="50" height="50" relative="1" as="geometry">
            <mxPoint x="224.25" y="-15" as="sourcePoint" />
            <mxPoint x="274.25" y="-65" as="targetPoint" />
          </mxGeometry>
        </mxCell>
        <mxCell id="kESSp_721VdWlTzvNjMp-53" value="" style="endArrow=none;html=1;rounded=0;exitX=0.5;exitY=1;exitDx=0;exitDy=0;entryX=0;entryY=0.25;entryDx=0;entryDy=0;" parent="1" source="xV3OURPxh5zo4PtfM_T0-27" target="xV3OURPxh5zo4PtfM_T0-15" edge="1">
          <mxGeometry width="50" height="50" relative="1" as="geometry">
            <mxPoint x="119.25" y="30" as="sourcePoint" />
            <mxPoint x="169.25" y="-20" as="targetPoint" />
          </mxGeometry>
        </mxCell>
        <mxCell id="kESSp_721VdWlTzvNjMp-54" value="" style="endArrow=none;html=1;rounded=0;exitX=1;exitY=0;exitDx=0;exitDy=0;entryX=0;entryY=0.75;entryDx=0;entryDy=0;" parent="1" source="xV3OURPxh5zo4PtfM_T0-30" target="xV3OURPxh5zo4PtfM_T0-15" edge="1">
          <mxGeometry width="50" height="50" relative="1" as="geometry">
            <mxPoint x="119.25" y="100" as="sourcePoint" />
            <mxPoint x="169.25" y="50" as="targetPoint" />
          </mxGeometry>
        </mxCell>
        <mxCell id="kESSp_721VdWlTzvNjMp-55" value="" style="endArrow=none;html=1;rounded=0;exitX=0.5;exitY=0;exitDx=0;exitDy=0;entryX=0.5;entryY=1;entryDx=0;entryDy=0;" parent="1" source="xV3OURPxh5zo4PtfM_T0-31" target="xV3OURPxh5zo4PtfM_T0-15" edge="1">
          <mxGeometry width="50" height="50" relative="1" as="geometry">
            <mxPoint x="186.25" y="150" as="sourcePoint" />
            <mxPoint x="236.25" y="100" as="targetPoint" />
          </mxGeometry>
        </mxCell>
        <mxCell id="kESSp_721VdWlTzvNjMp-56" value="" style="endArrow=none;html=1;rounded=0;exitX=0.5;exitY=0;exitDx=0;exitDy=0;entryX=0.75;entryY=1;entryDx=0;entryDy=0;" parent="1" source="xV3OURPxh5zo4PtfM_T0-32" target="xV3OURPxh5zo4PtfM_T0-15" edge="1">
          <mxGeometry width="50" height="50" relative="1" as="geometry">
            <mxPoint x="306.25" y="210" as="sourcePoint" />
            <mxPoint x="356.25" y="160" as="targetPoint" />
          </mxGeometry>
        </mxCell>
      </root>
    </mxGraphModel>
  </diagram>
</mxfile>
